<svg viewBox="0 0 20 20" xmlns="http://www.w3.org/2000/svg"><circle fill="#000" cx="10" cy="10" r="9"/><path d="M6.039 8.342c.463 0 .772.084.927.251.154.168.191.455.11.862-.084.424-.247.727-.487.908-.241.182-.608.272-1.1.272h-.743l.456-2.293h.837zm-2.975 4.615h1.22l.29-1.457H5.62c.461 0 .84-.047 1.139-.142.298-.095.569-.254.812-.477.205-.184.37-.387.497-.608.127-.222.217-.466.27-.734.13-.65.032-1.155-.292-1.518-.324-.362-.84-.543-1.545-.543H4.153l-1.089 5.479zM9.235 6.02h1.21l-.289 1.458h1.079c.679 0 1.147.115 1.405.347.258.231.335.607.232 1.125l-.507 2.55h-1.23l.481-2.424c.055-.276.035-.464-.06-.565-.095-.1-.298-.15-.608-.15H9.98L9.356 11.5h-1.21l1.089-5.48M15.566 8.342c.464 0 .773.084.928.251.154.168.19.455.11.862-.084.424-.247.727-.488.908-.24.182-.607.272-1.1.272h-.742l.456-2.293h.836zm-2.974 4.615h1.22l.29-1.457h1.046c.461 0 .84-.047 1.139-.142.298-.095.569-.254.812-.477.205-.184.37-.387.497-.608.127-.222.217-.466.27-.734.129-.65.032-1.155-.292-1.518-.324-.362-.84-.543-1.545-.543H13.68l-1.089 5.479z" fill="#FFF"/></svg>